HIERARCHY
ROOT Hips
{
	OFFSET 0.000000 0.000000 0.000000
	CHANNELS 6 Xposition Yposition Zposition Zrotation Yrotation Xrotation 
	JOINT LHipJoint
	{
		OFFSET 0.000000 0.000000 0.000000
		CHANNELS 3 Zrotation Yrotation Xrotation
		JOINT LeftUpLeg
		{
			OFFSET 1.363060 -1.794630 0.839290
			CHANNELS 3 Zrotation Yrotation Xrotation
			JOINT LeftLeg
			{
				OFFSET 2.448110 -6.726130 0.000000
				CHANNELS 3 Zrotation Yrotation Xrotation
				JOINT LeftFoot
				{
					OFFSET 2.562200 -7.039590 0.000000
					CHANNELS 3 Zrotation Yrotation Xrotation
					JOINT LeftToeBase
					{
						OFFSET 0.157640 -0.433110 2.322550
						CHANNELS 3 Zrotation Yrotation Xrotation
						End Site
						{
							OFFSET 0.000000 0.000000 0.000000
						}
					}
				}
			}
		}
	}
	JOINT RHipJoint
	{
		OFFSET 0.000000 0.000000 0.000000
		CHANNELS 3 Zrotation Yrotation Xrotation
		JOINT RightUpLeg
		{
			OFFSET -1.305520 -1.794630 0.839290
			CHANNELS 3 Zrotation Yrotation Xrotation
			JOINT RightLeg
			{
				OFFSET -2.542530 -6.985550 0.000000
				CHANNELS 3 Zrotation Yrotation Xrotation
				JOINT RightFoot
				{
					OFFSET -2.568260 -7.056230 0.000000
					CHANNELS 3 Zrotation Yrotation Xrotation
					JOINT RightToeBase
					{
						OFFSET -0.164730 -0.452590 2.363150
						CHANNELS 3 Zrotation Yrotation Xrotation
						End Site
						{
							OFFSET 0.000000 0.000000 0.000000
						}
					}
				}
			}
		}
	}
	JOINT LowerBack
	{
		OFFSET 0.000000 0.000000 0.000000
		CHANNELS 3 Zrotation Yrotation Xrotation
		JOINT Spine
		{
			OFFSET 0.028270 2.035590 -0.193380
			CHANNELS 3 Zrotation Yrotation Xrotation
			JOINT Spine1
			{
				OFFSET 0.056720 2.048850 -0.042750
				CHANNELS 3 Zrotation Yrotation Xrotation
				JOINT Neck
				{
					OFFSET 0.000000 0.000000 0.000000
					CHANNELS 3 Zrotation Yrotation Xrotation
					JOINT Neck1
					{
						OFFSET -0.054170 1.746240 0.172020
						CHANNELS 3 Zrotation Yrotation Xrotation
						JOINT Head
						{
							OFFSET 0.104070 1.761360 -0.123970
							CHANNELS 3 Zrotation Yrotation Xrotation
							End Site
							{
								OFFSET 0.000000 0.000000 0.000000
							}
						}
					}
				}
				JOINT LeftShoulder
				{
					OFFSET 0.000000 0.000000 0.000000
					CHANNELS 3 Zrotation Yrotation Xrotation
					JOINT LeftArm
					{
						OFFSET 3.362410 1.200890 -0.311210
						CHANNELS 3 Zrotation Yrotation Xrotation
						JOINT LeftForeArm
						{
							OFFSET 4.983000 -0.000000 -0.000000
							CHANNELS 3 Zrotation Yrotation Xrotation
							JOINT LeftHand
							{
								OFFSET 3.483560 -0.000000 -0.000000
								CHANNELS 3 Zrotation Yrotation Xrotation
								JOINT LeftFingerBase
								{
									OFFSET 0.000000 0.000000 0.000000
									CHANNELS 3 Zrotation Yrotation Xrotation
									JOINT LeftHandIndex1
									{
										OFFSET 0.715260 -0.000000 -0.000000
										CHANNELS 3 Zrotation Yrotation Xrotation
										End Site
										{
											OFFSET 0.000000 0.000000 0.000000
										}
									}
								}
								JOINT LThumb
								{
									OFFSET 0.000000 0.000000 0.000000
									CHANNELS 3 Zrotation Yrotation Xrotation
									End Site
									{
										OFFSET 0.000000 0.000000 0.000000
									}
								}
							}
						}
					}
				}
				JOINT RightShoulder
				{
					OFFSET 0.000000 0.000000 0.000000
					CHANNELS 3 Zrotation Yrotation Xrotation
					JOINT RightArm
					{
						OFFSET -3.136600 1.374050 -0.404650
						CHANNELS 3 Zrotation Yrotation Xrotation
						JOINT RightForeArm
						{
							OFFSET -5.241900 -0.000000 -0.000000
							CHANNELS 3 Zrotation Yrotation Xrotation
							JOINT RightHand
							{
								OFFSET -3.444170 -0.000000 -0.000000
								CHANNELS 3 Zrotation Yrotation Xrotation
								JOINT RightFingerBase
								{
									OFFSET 0.000000 0.000000 0.000000
									CHANNELS 3 Zrotation Yrotation Xrotation
									JOINT RightHandIndex1
									{
										OFFSET -0.622530 -0.000000 -0.000000
										CHANNELS 3 Zrotation Yrotation Xrotation
										End Site
										{
											OFFSET 0.000000 0.000000 0.000000
										}
									}
								}
								JOINT RThumb
								{
									OFFSET 0.000000 0.000000 0.000000
									CHANNELS 3 Zrotation Yrotation Xrotation
									End Site
									{
										OFFSET 0.000000 0.000000 0.000000
									}
								}
							}
						}
					}
				}
			}
		}
	}
}
MOTION
Frames: 11
Frame Time: 0.008333
0.617023 17.931172 5.577592 -1.569323 4.114616 2.272952 -2.770257 -0.586624 1.395665 3.579647 -0.432466 -2.278381 -0.486201 0.632950 0.840521 0.067431 4.161197 10.575322 0.000000 0.000000 0.000000 1.714022 1.036404 -0.386467 12.924672 -0.017388 0.192726 -0.457409 -5.681697 13.742318 4.869359 -25.050331 -6.750781 -0.069900 1.705900 -4.693500 -0.027650 -0.424273 1.463805 2.242177 -0.718258 2.687721 1.304561 -0.330419 -2.429087 2.431307 0.093388 -24.128323 1.572835 -0.446291 11.196795 -2.306400 -0.112300 9.029900 5.027727 -0.762055 0.000384 -34.909376 9.639385 -29.245980 17.039091 -23.189980 -2.129731 0.795244 1.142577 9.430202 14.503179 5.463499 1.032400 -7.125000 0.000000 0.000000 -10.442400 34.132500 2.823900 -4.224805 1.238998 0.565735 27.134726 -10.856172 -33.377897 -15.659863 21.812369 -2.172092 -0.153166 -1.283308 5.667032 -12.019051 -11.953048 2.245600 7.125000 0.000000 0.000000 13.235700 -40.485300 1.503400 
0.616827 17.931563 5.577004 -1.544725 4.139052 2.285383 -2.770827 -0.587128 1.395815 3.579816 -0.432611 -2.278181 -0.486182 0.632759 0.840602 0.067359 4.161004 10.575398 0.000000 0.000000 0.000000 1.713532 1.035693 -0.385673 12.895422 -0.042958 0.167043 -0.458615 -5.686178 13.755462 4.866675 -25.039574 -6.744759 -0.070500 1.713500 -4.714700 -0.044128 -0.428458 1.459601 2.230307 -0.725466 2.694461 1.310014 -0.332828 -2.423406 2.468324 0.119410 -24.095588 1.532347 -0.427075 11.112443 -2.322700 -0.109600 8.998900 5.031616 -0.766934 0.000994 -34.908189 9.622943 -29.322079 17.025665 -23.171691 -2.123845 0.793313 1.135638 9.537021 14.460270 5.395328 1.014000 -7.125000 0.000000 0.000000 -10.466000 34.068100 2.847100 -4.224817 1.231109 0.565213 27.119724 -10.839648 -33.475580 -15.634227 21.778290 -2.162083 -0.155493 -1.274873 5.846087 -11.981823 -11.796013 2.207700 7.125000 0.000000 0.000000 13.232400 -40.334800 1.553100 
0.616435 17.932053 5.576515 -1.519681 4.165109 2.299080 -2.771437 -0.587640 1.395988 3.579988 -0.432758 -2.277976 -0.486163 0.632564 0.840683 0.067288 4.160808 10.575476 0.000000 0.000000 0.000000 1.713035 1.034933 -0.384885 12.866608 -0.066883 0.139866 -0.460035 -5.691267 13.770295 4.864600 -25.031354 -6.738731 -0.071200 1.721300 -4.736000 -0.061812 -0.432981 1.454148 2.217889 -0.733319 2.702037 1.315632 -0.335559 -2.416457 2.509417 0.147531 -24.068967 1.491278 -0.405653 11.035370 -2.339600 -0.105300 8.971300 5.035386 -0.771381 0.001642 -34.904611 9.598907 -29.405833 17.012076 -23.154404 -2.118392 0.791466 1.130188 9.639919 14.418885 5.346603 1.000300 -7.125000 0.000000 0.000000 -10.490900 34.022200 2.865900 -4.224510 1.224027 0.564507 27.108894 -10.833760 -33.548135 -15.614926 21.752281 -2.154259 -0.157577 -1.267461 5.993466 -11.954783 -11.655126 2.174900 7.125000 0.000000 0.000000 13.224500 -40.200100 1.596900 
0.615847 17.932445 5.576123 -1.495533 4.189767 2.312451 -2.772019 -0.588067 1.396162 3.580122 -0.432878 -2.277809 -0.486146 0.632406 0.840748 0.067232 4.160650 10.575541 0.000000 0.000000 0.000000 1.712562 1.034284 -0.384224 12.840243 -0.085205 0.115619 -0.461427 -5.696222 13.784825 4.863603 -25.026853 -6.738985 -0.071800 1.728100 -4.754800 -0.080437 -0.436902 1.448479 2.205960 -0.740040 2.708839 1.321650 -0.337860 -2.409807 2.543641 0.171030 -24.051039 1.458393 -0.387563 10.972697 -2.353300 -0.101400 8.949500 5.038322 -0.775212 0.002099 -34.897258 9.582546 -29.443132 17.005631 -23.145462 -2.115680 0.790419 1.129163 9.678419 14.396606 5.339616 0.997300 -7.125000 0.000000 0.000000 -10.506700 34.015100 2.872200 -4.224128 1.218642 0.564017 27.101266 -10.832977 -33.627888 -15.597796 21.729521 -2.147195 -0.158912 -1.260684 6.148485 -11.916590 -11.531495 2.143800 7.125000 0.000000 0.000000 13.229200 -40.081300 1.637000 
0.615064 17.932837 5.576123 -1.476807 4.209910 2.323092 -2.772476 -0.588471 1.396228 3.580237 -0.432979 -2.277674 -0.486133 0.632274 0.840804 0.067186 4.160517 10.575593 0.000000 0.000000 0.000000 1.712182 1.033733 -0.383748 12.821500 -0.096646 0.098171 -0.462469 -5.700116 13.796433 4.863625 -25.026442 -6.744384 -0.072000 1.730900 -4.762700 -0.096093 -0.438715 1.445036 2.196752 -0.743837 2.712903 1.326682 -0.338808 -2.405805 2.571931 0.192735 -24.028772 1.429436 -0.369737 10.915922 -2.364800 -0.097300 8.928800 5.040284 -0.779482 0.002570 -34.887236 9.576333 -29.435648 17.005600 -23.143802 -2.115508 0.790316 1.131679 9.662214 14.394108 5.365322 1.002900 -7.125000 0.000000 0.000000 -10.512000 34.038800 2.867500 -4.223253 1.214543 0.563265 27.096153 -10.840319 -33.686571 -15.590752 21.720801 -2.143840 -0.159201 -1.256502 6.272910 -11.879844 -11.459712 2.123400 7.125000 0.000000 0.000000 13.243400 -40.011500 1.662100 
0.614280 17.933131 5.576319 -1.462954 4.227926 2.331044 -2.772917 -0.588760 1.396519 3.580388 -0.433096 -2.277498 -0.486119 0.632113 0.840870 0.067124 4.160356 10.575658 0.000000 0.000000 0.000000 1.711874 1.033152 -0.383030 12.808493 -0.107009 0.085795 -0.463167 -5.702789 13.804448 4.863975 -25.026692 -6.754314 -0.072000 1.731100 -4.763000 -0.109327 -0.441512 1.443545 2.188955 -0.748788 2.723343 1.330920 -0.340378 -2.399910 2.611663 0.222169 -24.022543 1.391795 -0.344617 10.854872 -2.380200 -0.090300 8.909900 5.042304 -0.783484 0.002817 -34.876849 9.568139 -29.443985 17.002960 -23.140328 -2.115229 0.791474 1.134912 9.653529 14.406454 5.404685 1.012600 -7.125000 0.000000 0.000000 -10.507600 34.075700 2.856700 -4.222358 1.209590 0.562005 27.094448 -10.835474 -33.746295 -15.588527 21.720109 -2.142658 -0.158708 -1.254504 6.375975 -11.843333 -11.436272 2.112800 7.125000 0.000000 0.000000 13.267600 -39.987500 1.673300 
0.613399 17.933424 5.576613 -1.457681 4.240001 2.336028 -2.773220 -0.588890 1.396965 3.580559 -0.433213 -2.277307 -0.486108 0.631946 0.840935 0.067059 4.160188 10.575725 0.000000 0.000000 0.000000 1.711772 1.032605 -0.382248 12.806143 -0.109880 0.080141 -0.463418 -5.703982 13.807943 4.865072 -25.030089 -6.767369 -0.071800 1.728300 -4.755500 -0.117109 -0.443377 1.444943 2.185128 -0.752304 2.737143 1.333329 -0.341361 -2.394545 2.646660 0.251958 -24.023377 1.358277 -0.317615 10.795068 -2.393400 -0.082300 8.892700 5.044249 -0.786776 0.002903 -34.864372 9.560194 -29.455619 16.998448 -23.134542 -2.114523 0.793520 1.137266 9.647171 14.429279 5.434292 1.020800 -7.125000 0.000000 0.000000 -10.494300 34.103700 2.845800 -4.221795 1.204598 0.560470 27.091388 -10.822390 -33.803394 -15.589199 21.723813 -2.142917 -0.157369 -1.255088 6.466913 -11.803228 -11.470068 2.112900 7.125000 0.000000 0.000000 13.306600 -40.017600 1.668300 
0.612615 17.933522 5.577004 -1.454785 4.248396 2.337791 -2.773556 -0.588806 1.397667 3.580706 -0.433310 -2.277125 -0.486098 0.631798 0.840989 0.066998 4.160043 10.575789 0.000000 0.000000 0.000000 1.711661 1.032151 -0.381319 12.805440 -0.117399 0.078243 -0.463324 -5.703417 13.806764 4.865162 -25.030342 -6.770862 -0.071800 1.728200 -4.755200 -0.121930 -0.445482 1.448713 2.180983 -0.755926 2.756181 1.334163 -0.342641 -2.388268 2.674834 0.278208 -24.044714 1.332520 -0.292216 10.749747 -2.403400 -0.074200 8.883300 5.046586 -0.787702 0.002637 -34.852853 9.544468 -29.504459 16.987634 -23.122235 -2.111872 0.796239 1.135976 9.685731 14.454632 5.429968 1.021600 -7.125000 0.000000 0.000000 -10.474900 34.100700 2.841100 -4.221991 1.199769 0.559197 27.085797 -10.794482 -33.873122 -15.585446 21.721941 -2.141917 -0.157068 -1.254851 6.554110 -11.777737 -11.484369 2.111600 7.125000 0.000000 0.000000 13.329900 -40.030100 1.667200 
0.611832 17.933620 5.577396 -1.457802 4.255903 2.338551 -2.773772 -0.588518 1.398506 3.580834 -0.433381 -2.276961 -0.486092 0.631677 0.841028 0.066949 4.159927 10.575843 0.000000 0.000000 0.000000 1.711703 1.031840 -0.380408 12.811905 -0.123844 0.079703 -0.462850 -5.701490 13.801085 4.865867 -25.033157 -6.770941 -0.071800 1.728300 -4.755500 -0.121427 -0.447958 1.452149 2.179607 -0.759832 2.777260 1.332962 -0.344480 -2.381261 2.688759 0.295971 -24.082726 1.321824 -0.272691 10.731415 -2.407200 -0.066800 8.884800 5.048597 -0.786469 0.002171 -34.840080 9.524585 -29.565343 16.973808 -23.106352 -2.108251 0.799293 1.132548 9.741546 14.481723 5.403468 1.017500 -7.125000 0.000000 0.000000 -10.451400 34.077100 2.840600 -4.222565 1.197330 0.558285 27.077718 -10.775626 -33.892676 -15.586954 21.725090 -2.142417 -0.156858 -1.255377 6.571913 -11.771268 -11.497377 2.113100 7.125000 0.000000 0.000000 13.337800 -40.042100 1.664200 
0.611048 17.933620 5.577788 -1.464418 4.262579 2.338324 -2.773927 -0.588036 1.399369 3.580881 -0.433394 -2.276873 -0.486091 0.631632 0.841034 0.066928 4.159890 10.575870 0.000000 0.000000 0.000000 1.711758 1.031808 -0.379683 12.821877 -0.131499 0.084374 -0.462098 -5.698067 13.791631 4.866373 -25.035462 -6.767943 -0.071800 1.728600 -4.756200 -0.116463 -0.450972 1.456856 2.178821 -0.763915 2.797018 1.329625 -0.346725 -2.376043 2.685878 0.301467 -24.141289 1.328796 -0.262492 10.748573 -2.403900 -0.061300 8.900300 5.049856 -0.782985 0.001460 -34.824717 9.508878 -29.610660 16.961686 -23.092604 -2.105272 0.802664 1.129394 9.784322 14.514963 5.377590 1.013900 -7.125000 0.000000 0.000000 -10.423400 34.054100 2.838700 -4.223455 1.198193 0.557921 27.067845 -10.767273 -33.874159 -15.592323 21.731820 -2.144220 -0.156679 -1.257334 6.540727 -11.780925 -11.529078 2.120900 7.125000 0.000000 0.000000 13.336500 -40.072200 1.653900 
0.610363 17.933620 5.578278 -1.476566 4.268789 2.338230 -2.773951 -0.587510 1.400202 3.580931 -0.433401 -2.276790 -0.486093 0.631594 0.841037 0.066913 4.159859 10.575894 0.000000 0.000000 0.000000 1.711946 1.031844 -0.379028 12.837947 -0.139134 0.090034 -0.461052 -5.693696 13.779067 4.867023 -25.038403 -6.761050 -0.071900 1.729400 -4.758300 -0.105893 -0.453503 1.457679 2.180775 -0.767132 2.815727 1.324162 -0.348766 -2.368789 2.676409 0.302313 -24.203273 1.340321 -0.255742 10.778437 -2.398600 -0.056700 8.920200 5.050543 -0.779258 0.000783 -34.809003 9.495065 -29.643627 16.951554 -23.080571 -2.102657 0.805527 1.126688 9.817436 14.543339 5.354255 1.010500 -7.125000 0.000000 0.000000 -10.399500 34.033300 2.837400 -4.224224 1.200609 0.557805 27.055126 -10.771792 -33.808979 -15.604617 21.745837 -2.147640 -0.157002 -1.258455 6.444723 -11.812224 -11.522504 2.124700 7.125000 0.000000 0.000000 13.310000 -40.066900 1.652300 
